<svg width="0" height="0" class="hidden">
        <symbol xmlns="http://www.w3.org/2000/svg" viewBox="0 0 24.82 24.603" id="instagram">
            <path
                d="M0 6.592a9.482 9.482 0 0 1 1.039-3.283A6.907 6.907 0 0 1 7.2.063q5.2-.128 10.405 0a6.944 6.944 0 0 1 5.882 2.873 7.61 7.61 0 0 1 1.29 4.371c.051 3.332.074 6.667 0 10-.062 2.683-.994 4.972-3.506 6.337a7.932 7.932 0 0 1-3.73.918c-3.423.04-6.848.073-10.27-.005A6.955 6.955 0 0 1 1.039 21.3 9.482 9.482 0 0 1 0 18.022Zm12.419-4.18c-1.7 0-3.4-.033-5.1.008-2.655.062-4.288 1.306-4.771 3.593a7.4 7.4 0 0 0-.182 1.481c-.016 3.219-.059 6.44.007 9.658.066 3.2 1.685 4.915 4.774 5.029 3.489.128 6.983.117 10.473 0 2.573-.085 4.1-1.324 4.595-3.548a5.782 5.782 0 0 0 .173-1.209c.019-3.671.22-7.346-.111-11.009a4.145 4.145 0 0 0-3.812-3.884 51.949 51.949 0 0 0-6.045-.121" />
            <path
                d="M18.814 12.353a6.431 6.431 0 1 1-6.389-6.426 6.446 6.446 0 0 1 6.389 6.426m-2.383-.036a4.046 4.046 0 1 0-4.056 4 4.043 4.043 0 0 0 4.056-4" />
            <path
                d="M18.989 4.243a1.557 1.557 0 0 1 1.569 1.536 1.563 1.563 0 0 1-3.124.013 1.544 1.544 0 0 1 1.555-1.55" />
        </symbol>
        <symbol xmlns="http://www.w3.org/2000/svg" viewBox="0 0 26.205 26.205" id="twitter_x">
            <path
                d="M13.1 0a13.1 13.1 0 1 0 13.1 13.1A13.1 13.1 0 0 0 13.1 0m3.284 20.694-4.458-5.961-5.516 5.961H4.992l6.3-6.808-6.261-8.375h4.827L13.964 11l5.081-5.49h1.419L14.6 11.849l6.615 8.845Z" />
            <path d="m7.117 6.556 9.792 13.093h2.217L9.334 6.556Z" />
        </symbol>
        <symbol xmlns="http://www.w3.org/2000/svg" viewBox="0 0 13.815 26.473" id="facebook">
            <path
                d="M11.631 4.758h2.184V0h-3.291C5.863 0 3.651 2.774 3.651 6.724v3.742H0v4.517h3.651v11.49h5.475v-11.49h3.65l1.037-4.515H9.126V7.383a2.411 2.411 0 0 1 2.5-2.625" />
        </symbol>
        <symbol xmlns="http://www.w3.org/2000/svg" viewBox="0 0 9 17.8" id="angle_left">
            <path
                d="M7.855 17.8a1.143 1.143 0 0 1-.793-.319l-5.887-5.648a3.956 3.956 0 0 1-.017-5.611L7.045.335a1.145 1.145 0 0 1 1.62 1.619L2.778 7.841a1.666 1.666 0 0 0 0 2.356l5.87 5.632a1.145 1.145 0 0 1-.793 1.971" />
        </symbol>
        <symbol xmlns="http://www.w3.org/2000/svg" viewBox="0 0 17.419 22.084" id="contact_map">
            <path
                d="M7.981.544a6.874 6.874 0 0 0-5.919 7.351c.405 4.66 4.691 8.136 6.16 9.2a.8.8 0 0 0 .964-.018c1.525-1.191 6.207-5.227 6.207-9.888A6.683 6.683 0 0 0 7.981.544m.732 9.293a2.651 2.651 0 1 1 2.65-2.651 2.651 2.651 0 0 1-2.651 2.651"
                stroke="rgba(0,0,0,0)" stroke-miterlimit="10" />
            <path
                d="m16.885 20.078-1.094-4.96a1.24 1.24 0 0 0-1.211-.973h-.351a21.963 21.963 0 0 1-4.116 4.116 2.306 2.306 0 0 1-2.773.052 20.372 20.372 0 0 1-4.276-4.168h-.256a1.24 1.24 0 0 0-1.212.98l-1.063 4.96a1.24 1.24 0 0 0 1.212 1.5h13.929a1.24 1.24 0 0 0 1.211-1.507"
                stroke="rgba(0,0,0,0)" stroke-miterlimit="10" />
        </symbol>
        <symbol xmlns="http://www.w3.org/2000/svg" viewBox="0 0 19.565 19.58" id="contact_phone">
            <path
                d="m18.134 13.813-2.368-1.276c-.576-.31-1.024-.086-1.521.6-1.09 1.5-1.618 1.8-2.956 1.049a14.427 14.427 0 0 1-3.263-2.645 14.428 14.428 0 0 1-2.645-3.263c-.747-1.338-.45-1.866 1.049-2.956.683-.5.908-.945.6-1.521l-1.278-2.37C5.23.424 4.491.309 3.398.679 1.889 1.189.429 3.368.503 4.401a15.9 15.9 0 0 0 4.877 9.8 15.891 15.891 0 0 0 9.8 4.876c1.034.074 3.2-1.4 3.708-2.908.37-1.093.255-1.833-.752-2.354"
                stroke="rgba(0,0,0,0)" stroke-miterlimit="10" />
            <path
                d="M11.052 4.697a.904.904 0 0 0 .007 1.807h.025a2 2 0 0 1 2.006 2.022.9.9 0 0 0 .9.911h.008a.9.9 0 0 0 .9-.9 3.786 3.786 0 0 0-1.115-2.728 3.87 3.87 0 0 0-2.729-1.115m5.393-1.549a7.557 7.557 0 0 0-5.389-2.22.903.903 0 0 0 0 1.807h.025a5.772 5.772 0 0 1 5.774 5.8.9.9 0 0 0 .9.907.9.9 0 0 0 .9-.9 7.527 7.527 0 0 0-2.22-5.389"
                stroke="rgba(0,0,0,0)" stroke-miterlimit="10" />
        </symbol>
        <symbol xmlns="http://www.w3.org/2000/svg" viewBox="0 0 21.333 14.828" id="contact_mail">
            <path d="M0 .708v13.116l7.267-6.6Z" />
            <path d="M11.994 7.558 20.654.01c-.018 0-.033-.01-.051-.01H.969l8.4 7.538a1.986 1.986 0 0 0 2.628.019" />
            <path
                d="M12.764 8.441a3.159 3.159 0 0 1-4.18-.031l-.442-.4-7.49 6.8a.713.713 0 0 0 .076.015h19.865l-7.425-6.734Z" />
            <path d="m14.058 7.314 7.276 6.6V.973Z" />
        </symbol>
        <symbol xmlns="http://www.w3.org/2000/svg" viewBox="0 0 14.278 18.049" id="agency_map">
            <path stroke="rgba(0,0,0,0)" stroke-miterlimit="10"
                d="M1.504 17.549a1 1 0 0 1-.98-1.213l.859-4.01a1 1 0 0 1 .981-.793h.21a16.468 16.468 0 0 0 3.457 3.371 1.866 1.866 0 0 0 2.242-.042 17.772 17.772 0 0 0 3.331-3.329h.284a1 1 0 0 1 .979.787l.885 4.01a1 1 0 0 1-.979 1.218Zm5.238-3.632c-1.185-.859-4.65-3.669-4.978-7.438A5.558 5.558 0 0 1 6.55.536a5.4 5.4 0 0 1 5.994 5.368c0 3.769-3.786 7.033-5.019 8a.648.648 0 0 1-.78.014ZM4.998 5.904a2.144 2.144 0 1 0 2.143-2.142 2.144 2.144 0 0 0-2.143 2.142Z" />
        </symbol>
        <symbol xmlns="http://www.w3.org/2000/svg" viewBox="0 0 16.015 16.025" id="agency_phone">
            <path stroke="rgba(0,0,0,0)" stroke-miterlimit="10"
                d="M12.369 15.523a12.848 12.848 0 0 1-7.922-3.943A12.855 12.855 0 0 1 .501 3.657 4.029 4.029 0 0 1 2.844.647c.883-.3 1.482-.206 1.9.608L5.78 3.169c.25.466.069.829-.483 1.23-1.213.882-1.453 1.309-.848 2.392a11.668 11.668 0 0 0 2.138 2.637 11.651 11.651 0 0 0 2.639 2.139c1.081.6 1.509.364 2.39-.849.4-.552.764-.734 1.229-.483l1.915 1.032c.814.422.907 1.02.607 1.9a4.1 4.1 0 0 1-2.936 2.354Zm2.087-7.794a.731.731 0 0 1-.728-.734 4.668 4.668 0 0 0-4.669-4.686h-.02a.731.731 0 0 1 0-1.461A6.13 6.13 0 0 1 15.192 7a.731.731 0 0 1-.731.729Zm-3.051 0a.731.731 0 0 1-.724-.738 1.619 1.619 0 0 0-1.622-1.635h-.02a.73250614.73250614 0 0 1-.006-1.465 3.133 3.133 0 0 1 2.207.9 3.065 3.065 0 0 1 .9 2.206.731.731 0 0 1-.731.725Z" />
        </symbol>
        <symbol xmlns="http://www.w3.org/2000/svg" viewBox="0 0 17.251 11.991" id="agency_mail">
            <path d="M0 .573v10.606l5.876-5.334Z" />
            <path d="m9.699 6.112 7-6.1c-.014 0-.027-.008-.041-.008H.784L7.575 6.1a1.606 1.606 0 0 0 2.125.016" />
            <path
                d="M10.322 6.827a2.554 2.554 0 0 1-3.38-.025l-.359-.321-6.056 5.5a.577.577 0 0 0 .062.012h16.063l-6-5.449Z" />
            <path d="m11.368 5.915 5.883 5.34V.787Z" />
        </symbol>
    </svg>